G04 EAGLE Gerber RS-274X export*
G75*
%MOMM*%
%FSLAX34Y34*%
%LPD*%
%INBottom Copper*%
%IPPOS*%
%AMOC8*
5,1,8,0,0,1.08239X$1,22.5*%
G01*
%ADD10R,1.358000X1.358000*%
%ADD11C,1.358000*%
%ADD12C,1.879600*%
%ADD13C,0.762000*%
%ADD14C,0.203200*%


D10*
X107950Y304800D03*
D11*
X107950Y279400D03*
X107950Y254000D03*
X107950Y228600D03*
X107950Y203200D03*
X107950Y177800D03*
X107950Y152400D03*
X107950Y127000D03*
X107950Y101600D03*
X107950Y76200D03*
X107950Y50800D03*
X107950Y25400D03*
X184150Y25400D03*
X184150Y50800D03*
X184150Y76200D03*
X184150Y101600D03*
X184150Y127000D03*
X184150Y152400D03*
X184150Y177800D03*
X184150Y203200D03*
X184150Y228600D03*
X184150Y254000D03*
X184150Y279400D03*
X184150Y304800D03*
D12*
X58420Y266700D03*
X33020Y266700D03*
X33020Y241300D03*
X58420Y241300D03*
X58420Y215900D03*
X33020Y215900D03*
D13*
X127000Y139700D03*
D14*
X127000Y217170D01*
X184150Y279400D01*
X184150Y254000D02*
X137160Y201930D01*
X137160Y137160D01*
X127000Y127000D01*
D13*
X127000Y127000D03*
D14*
X33020Y241300D02*
X22860Y241300D01*
X12700Y231140D01*
X12700Y180340D01*
X27940Y165100D01*
X30480Y165100D01*
D13*
X30480Y165100D03*
X127000Y114300D03*
D14*
X76200Y223520D02*
X58420Y241300D01*
X119380Y121920D02*
X127000Y114300D01*
X119380Y121920D02*
X119380Y132080D01*
X111760Y139700D01*
X86360Y139700D01*
X76200Y149860D01*
X76200Y223520D01*
M02*
