G04 EAGLE Gerber RS-274X export*
G75*
%MOMM*%
%FSLAX34Y34*%
%LPD*%
%INTop Copper*%
%IPPOS*%
%AMOC8*
5,1,8,0,0,1.08239X$1,22.5*%
G01*
%ADD10R,1.922000X0.650000*%
%ADD11C,0.654000*%
%ADD12R,3.000000X1.250000*%
%ADD13R,1.100000X1.000000*%
%ADD14C,0.203200*%
%ADD15C,0.558800*%
%ADD16C,0.609600*%


D10*
X52428Y190500D03*
X52428Y177800D03*
X52428Y165100D03*
X52428Y152400D03*
X52428Y139700D03*
X52428Y127000D03*
X52428Y114300D03*
X52428Y101600D03*
X52428Y88900D03*
X52428Y76200D03*
X52428Y63500D03*
X52428Y50800D03*
X52428Y38100D03*
X52428Y25400D03*
X146708Y25400D03*
X146708Y38100D03*
X146708Y50800D03*
X146708Y63500D03*
X146708Y76200D03*
X146708Y88900D03*
X146708Y101600D03*
X146708Y114300D03*
X146708Y127000D03*
X146708Y139700D03*
X146708Y152400D03*
X146708Y165100D03*
X146708Y177800D03*
X146708Y190500D03*
D11*
X10160Y190500D03*
X10160Y177800D03*
X10160Y165100D03*
X10160Y152400D03*
X10160Y139700D03*
X10160Y127000D03*
X10160Y114300D03*
X10160Y101600D03*
X10160Y88900D03*
X10160Y76200D03*
X10160Y63500D03*
X10160Y50800D03*
X104140Y50800D03*
X104140Y63500D03*
X104140Y76200D03*
X104140Y88900D03*
X104140Y101600D03*
X104140Y114300D03*
X104140Y127000D03*
X104140Y139700D03*
X104140Y152400D03*
X104140Y165100D03*
X104140Y177800D03*
X104140Y190500D03*
X15875Y76200D03*
X15875Y190500D03*
X15875Y177800D03*
X15875Y165100D03*
X15875Y152400D03*
X15875Y139700D03*
X15875Y127000D03*
X15875Y114300D03*
X15875Y101600D03*
X15875Y88900D03*
X15875Y63500D03*
X15875Y50800D03*
X98425Y50800D03*
X98425Y63500D03*
X98425Y76200D03*
X98425Y88900D03*
X98425Y101600D03*
X98425Y114300D03*
X98425Y127000D03*
X98425Y139700D03*
X98425Y152400D03*
X98425Y165100D03*
X98425Y177800D03*
X98425Y190500D03*
D12*
X223406Y86614D03*
X223406Y61214D03*
X223406Y35814D03*
X223406Y112014D03*
D13*
X189230Y55762D03*
X189230Y72762D03*
X187960Y100466D03*
X187960Y117466D03*
D14*
X116078Y177800D02*
X104140Y177800D01*
X116078Y177800D02*
X141478Y152400D01*
X146708Y152400D01*
D15*
X104140Y177800D02*
X98425Y177800D01*
D14*
X104140Y165100D02*
X115824Y165100D01*
X141224Y139700D01*
X146708Y139700D01*
D15*
X104140Y165100D02*
X98425Y165100D01*
D16*
X120650Y148082D03*
D14*
X116332Y152400D02*
X104140Y152400D01*
X116332Y152400D02*
X120650Y148082D01*
D16*
X131572Y177800D03*
D14*
X146708Y177800D01*
D15*
X104140Y152400D02*
X98425Y152400D01*
D14*
X104140Y139700D02*
X112268Y139700D01*
X137668Y114300D01*
X146708Y114300D01*
D15*
X104140Y139700D02*
X98425Y139700D01*
D14*
X104140Y127000D02*
X111760Y127000D01*
X137160Y101600D01*
X146708Y101600D01*
D15*
X104140Y127000D02*
X98425Y127000D01*
D14*
X104140Y114300D02*
X112014Y114300D01*
X137414Y88900D01*
X146708Y88900D01*
D15*
X104140Y114300D02*
X98425Y114300D01*
D14*
X104140Y101600D02*
X112014Y101600D01*
X137414Y76200D01*
X146708Y76200D01*
D15*
X104140Y101600D02*
X98425Y101600D01*
D14*
X104140Y88900D02*
X112268Y88900D01*
X137668Y63500D01*
X146708Y63500D01*
D15*
X104140Y88900D02*
X98425Y88900D01*
D14*
X104140Y76200D02*
X111760Y76200D01*
X137160Y50800D01*
X146708Y50800D01*
D15*
X104140Y76200D02*
X98425Y76200D01*
D14*
X104140Y63500D02*
X111760Y63500D01*
X137160Y38100D02*
X146708Y38100D01*
X137160Y38100D02*
X111760Y63500D01*
D15*
X104140Y63500D02*
X98425Y63500D01*
D14*
X104140Y50800D02*
X111506Y50800D01*
X136906Y25400D01*
X146708Y25400D01*
D15*
X104140Y50800D02*
X98425Y50800D01*
D14*
X52428Y165100D02*
X40132Y165100D01*
X15875Y189357D01*
X15875Y190500D01*
X40640Y152400D02*
X52428Y152400D01*
X40640Y152400D02*
X15875Y177165D01*
X15875Y177800D01*
X40894Y139700D02*
X52428Y139700D01*
X40894Y139700D02*
X15875Y164719D01*
X15875Y165100D01*
X40640Y127000D02*
X52428Y127000D01*
X40640Y127000D02*
X15875Y151765D01*
X15875Y152400D01*
X40640Y114300D02*
X52428Y114300D01*
X40640Y114300D02*
X15875Y139065D01*
X15875Y139700D01*
X39878Y101600D02*
X52428Y101600D01*
X39878Y101600D02*
X15875Y125603D01*
X15875Y127000D01*
X40640Y88900D02*
X52428Y88900D01*
X40640Y88900D02*
X15875Y113665D01*
X15875Y114300D01*
X15875Y101600D02*
X41275Y76200D01*
X52428Y76200D01*
X52428Y63500D02*
X40894Y63500D01*
X15875Y88519D01*
X15875Y88900D01*
X15875Y76200D02*
X41275Y50800D01*
X52428Y50800D01*
X52428Y38100D02*
X39624Y38100D01*
X15875Y61849D01*
X15875Y63500D01*
X104140Y190500D02*
X146708Y190500D01*
X187960Y117466D02*
X196618Y117466D01*
X202070Y112014D02*
X223406Y112014D01*
X202070Y112014D02*
X196618Y117466D01*
D16*
X187960Y147320D03*
X186944Y84328D03*
D14*
X157630Y190500D02*
X146708Y190500D01*
X157630Y190500D02*
X165100Y183030D01*
X165100Y170180D01*
X187960Y147320D01*
X187960Y117466D01*
X186944Y75048D02*
X189230Y72762D01*
X186944Y75048D02*
X186944Y84328D01*
D15*
X104140Y190500D02*
X98425Y190500D01*
D14*
X52428Y25400D02*
X38862Y25400D01*
X31369Y32893D01*
D16*
X23876Y25146D03*
D14*
X23876Y25400D01*
X31369Y32893D01*
D16*
X201168Y15748D03*
D14*
X201168Y35814D02*
X223406Y35814D01*
X201168Y35814D02*
X201168Y15748D01*
X31369Y32893D02*
X15875Y48387D01*
X15875Y50800D01*
X42926Y177800D02*
X52428Y177800D01*
X42926Y177800D02*
X32004Y188722D01*
D16*
X32004Y188722D03*
D14*
X189230Y55762D02*
X194682Y61214D01*
X223406Y61214D01*
D16*
X188468Y35560D03*
D14*
X189230Y36322D02*
X189230Y55762D01*
X189230Y36322D02*
X188468Y35560D01*
X208928Y86614D02*
X223406Y86614D01*
X208928Y86614D02*
X195076Y100466D01*
X187960Y100466D01*
X161426Y127000D01*
X146708Y127000D01*
M02*
