M48
;GenerationSoftware,Autodesk,EAGLE,9.6.2*%
;CreationDate,2020-06-22T20:08:03Z*%
FMAT,2
ICI,OFF
METRIC,TZ,000.000
T3C0.356
T2C0.850
T1C1.016
%
G90
M71
T1
X3302Y21590
X5842Y21590
X5842Y24130
X3302Y24130
X3302Y26670
X5842Y26670
T2
X10795Y25400
X10795Y22860
X10795Y20320
X10795Y17780
X10795Y15240
X10795Y12700
X10795Y10160
X10795Y7620
X10795Y5080
X10795Y2540
X18415Y2540
X18415Y5080
X18415Y7620
X18415Y10160
X18415Y12700
X18415Y15240
X18415Y17780
X18415Y20320
X18415Y22860
X18415Y25400
X18415Y27940
X18415Y30480
X10795Y27940
X10795Y30480
T3
X12700Y11430
X3048Y16510
X12700Y12700
X12700Y13970
M30