G04 EAGLE Gerber RS-274X export*
G75*
%MOMM*%
%FSLAX34Y34*%
%LPD*%
%INBottom Copper*%
%IPPOS*%
%AMOC8*
5,1,8,0,0,1.08239X$1,22.5*%
G01*
%ADD10C,0.654000*%
%ADD11C,0.609600*%
%ADD12C,0.203200*%
%ADD13C,0.558800*%


D10*
X10160Y190500D03*
X10160Y177800D03*
X10160Y165100D03*
X10160Y152400D03*
X10160Y139700D03*
X10160Y127000D03*
X10160Y114300D03*
X10160Y101600D03*
X10160Y88900D03*
X10160Y76200D03*
X10160Y63500D03*
X10160Y50800D03*
X104140Y50800D03*
X104140Y63500D03*
X104140Y76200D03*
X104140Y88900D03*
X104140Y101600D03*
X104140Y114300D03*
X104140Y127000D03*
X104140Y139700D03*
X104140Y152400D03*
X104140Y165100D03*
X104140Y177800D03*
X104140Y190500D03*
X15875Y76200D03*
X15875Y190500D03*
X15875Y177800D03*
X15875Y165100D03*
X15875Y152400D03*
X15875Y139700D03*
X15875Y127000D03*
X15875Y114300D03*
X15875Y101600D03*
X15875Y88900D03*
X15875Y63500D03*
X15875Y50800D03*
X98425Y50800D03*
X98425Y63500D03*
X98425Y76200D03*
X98425Y88900D03*
X98425Y101600D03*
X98425Y114300D03*
X98425Y127000D03*
X98425Y139700D03*
X98425Y152400D03*
X98425Y165100D03*
X98425Y177800D03*
X98425Y190500D03*
D11*
X120650Y148082D03*
D12*
X131572Y159004D01*
X131572Y177800D01*
D11*
X131572Y177800D03*
D13*
X15875Y190500D02*
X10160Y190500D01*
X10160Y177800D02*
X15875Y177800D01*
X15875Y165100D02*
X10160Y165100D01*
X10160Y152400D02*
X15875Y152400D01*
X15875Y139700D02*
X10160Y139700D01*
X10160Y127000D02*
X15875Y127000D01*
X15875Y114300D02*
X10160Y114300D01*
X10160Y101600D02*
X15875Y101600D01*
X15875Y88900D02*
X10160Y88900D01*
X10160Y76200D02*
X15875Y76200D01*
X15875Y63500D02*
X10160Y63500D01*
D11*
X187960Y147320D03*
X186944Y84328D03*
D12*
X186944Y94488D02*
X187960Y95504D01*
X186944Y94488D02*
X186944Y84328D01*
X187960Y95504D02*
X187960Y147320D01*
D11*
X23876Y25146D03*
D12*
X38608Y10414D01*
D11*
X201168Y15748D03*
D12*
X195834Y10414D01*
X38608Y10414D01*
D13*
X15875Y50800D02*
X10160Y50800D01*
D11*
X32004Y188722D03*
D12*
X37592Y183134D01*
X37592Y38608D01*
X56388Y19812D01*
X173990Y19812D01*
X188468Y34290D02*
X188468Y35560D01*
X188468Y34290D02*
X173990Y19812D01*
D11*
X188468Y35560D03*
M02*
