M48
;GenerationSoftware,Autodesk,EAGLE,9.6.2*%
;CreationDate,2020-06-29T03:21:29Z*%
FMAT,2
ICI,OFF
METRIC,TZ,000.000
T2C0.356
T1C0.400
%
G90
M71
T1
X10414Y15240
X9843Y17780
X9843Y16510
X9843Y15240
X9843Y13970
X9843Y12700
X9843Y11430
X9843Y10160
X1016Y19050
X1016Y17780
X1016Y16510
X1016Y15240
X1016Y13970
X1016Y12700
X1016Y11430
X1016Y10160
X1016Y8890
X1016Y7620
X1016Y6350
X1016Y5080
X10414Y5080
X10414Y6350
X10414Y7620
X10414Y8890
X10414Y10160
X10414Y11430
X10414Y12700
X10414Y13970
X9843Y19050
X10414Y16510
X10414Y17780
X10414Y19050
X1587Y7620
X1587Y19050
X1587Y17780
X1587Y16510
X1587Y15240
X1587Y13970
X1587Y12700
X1587Y11430
X1587Y10160
X1587Y8890
X1587Y6350
X1587Y5080
X9843Y5080
X9843Y6350
X9843Y7620
X9843Y8890
T2
X18847Y3556
X3200Y18872
X20117Y1575
X2388Y2515
X18694Y8433
X18796Y14732
X13157Y17780
X12065Y14808
M30